<svg width="50" height="35" viewBox="0 0 50 35" fill="none" xmlns="http://www.w3.org/2000/svg">
<path d="M2.77778 34.1666C1.99074 34.1666 1.33148 33.9 0.8 33.3666C0.266667 32.8352 0 32.1759 0 31.3889C0 30.6018 0.266667 29.9426 0.8 29.4111C1.33148 28.8778 1.99074 28.6111 2.77778 28.6111H47.2222C48.0093 28.6111 48.6685 28.8778 49.2 29.4111C49.7333 29.9426 50 30.6018 50 31.3889C50 32.1759 49.7333 32.8352 49.2 33.3666C48.6685 33.9 48.0093 34.1666 47.2222 34.1666H2.77778ZM2.77778 20.2778C1.99074 20.2778 1.33148 20.0111 0.8 19.4778C0.266667 18.9463 0 18.287 0 17.5C0 16.7129 0.266667 16.0528 0.8 15.5194C1.33148 14.9879 1.99074 14.7222 2.77778 14.7222H47.2222C48.0093 14.7222 48.6685 14.9879 49.2 15.5194C49.7333 16.0528 50 16.7129 50 17.5C50 18.287 49.7333 18.9463 49.2 19.4778C48.6685 20.0111 48.0093 20.2778 47.2222 20.2778H2.77778ZM2.77778 6.38887C1.99074 6.38887 1.33148 6.12313 0.8 5.59165C0.266667 5.05831 0 4.39813 0 3.61109C0 2.82405 0.266667 2.16387 0.8 1.63054C1.33148 1.09905 1.99074 0.833313 2.77778 0.833313H47.2222C48.0093 0.833313 48.6685 1.09905 49.2 1.63054C49.7333 2.16387 50 2.82405 50 3.61109C50 4.39813 49.7333 5.05831 49.2 5.59165C48.6685 6.12313 48.0093 6.38887 47.2222 6.38887H2.77778Z" fill="#D28D41"/>
</svg>
