<svg width="35" height="41" viewBox="0 0 35 41" fill="none" xmlns="http://www.w3.org/2000/svg">
<g id="Frame">
<path id="Vector" d="M2.32384 33.8334C1.78635 33.8334 1.33613 33.62 0.97316 33.1934C0.608933 32.7682 0.426819 32.2408 0.426819 31.6111C0.426819 30.9815 0.608933 30.4541 0.97316 30.0289C1.33613 29.6022 1.78635 29.3889 2.32384 29.3889H32.6762C33.2136 29.3889 33.6638 29.6022 34.0268 30.0289C34.3911 30.4541 34.5732 30.9815 34.5732 31.6111C34.5732 32.2408 34.3911 32.7682 34.0268 33.1934C33.6638 33.62 33.2136 33.8334 32.6762 33.8334H2.32384ZM2.32384 22.7222C1.78635 22.7222 1.33613 22.5089 0.97316 22.0822C0.608933 21.6571 0.426819 21.1296 0.426819 20.5C0.426819 19.8704 0.608933 19.3422 0.97316 18.9156C1.33613 18.4904 1.78635 18.2778 2.32384 18.2778H32.6762C33.2136 18.2778 33.6638 18.4904 34.0268 18.9156C34.3911 19.3422 34.5732 19.8704 34.5732 20.5C34.5732 21.1296 34.3911 21.6571 34.0268 22.0822C33.6638 22.5089 33.2136 22.7222 32.6762 22.7222H2.32384ZM2.32384 11.6111C1.78635 11.6111 1.33613 11.3985 0.97316 10.9734C0.608933 10.5467 0.426819 10.0185 0.426819 9.38891C0.426819 8.75928 0.608933 8.23113 0.97316 7.80447C1.33613 7.37928 1.78635 7.16669 2.32384 7.16669H32.6762C33.2136 7.16669 33.6638 7.37928 34.0268 7.80447C34.3911 8.23113 34.5732 8.75928 34.5732 9.38891C34.5732 10.0185 34.3911 10.5467 34.0268 10.9734C33.6638 11.3985 33.2136 11.6111 32.6762 11.6111H2.32384Z" fill="#D28D41"/>
</g>
</svg>
